<?xml version="1.0" standalone="no"?>
<!DOCTYPE svg PUBLIC "-//W3C//DTD SVG 20010904//EN"
 "http://www.w3.org/TR/2001/REC-SVG-20010904/DTD/svg10.dtd">
<svg version="1.0" xmlns="http://www.w3.org/2000/svg"
 width="940.000000pt" height="788.000000pt" viewBox="0 0 940.000000 788.000000"
 preserveAspectRatio="xMidYMid meet">

<g transform="translate(0.000000,788.000000) scale(0.100000,-0.100000)"
fill="#000000" stroke="none">
<path d="M633 7395 c-15 -29 -51 -185 -68 -295 -20 -125 -20 -381 0 -496 31
-180 86 -328 170 -454 25 -37 45 -72 45 -77 0 -6 -16 -45 -35 -87 -20 -42 -50
-118 -67 -168 -28 -85 -31 -104 -32 -228 -1 -119 2 -142 22 -195 52 -135 156
-288 276 -405 31 -30 56 -60 56 -66 0 -6 -16 -47 -36 -90 -85 -185 -115 -276
-150 -449 -26 -124 -26 -413 -1 -540 86 -440 278 -758 603 -1001 163 -121 181
-150 195 -303 14 -156 40 -175 196 -141 105 23 143 22 175 -7 16 -15 23 -13
80 27 35 24 66 49 70 54 5 6 7 108 5 226 l-2 215 -175 -3 c-228 -4 -345 8
-418 45 -72 36 -165 122 -191 177 -31 63 -27 99 25 206 118 242 171 446 181
695 9 228 -20 429 -96 651 -39 115 -39 115 -17 123 54 21 423 141 433 141 6 0
83 -121 173 -270 89 -148 165 -268 170 -265 4 2 78 122 165 266 87 143 163
263 170 265 16 7 445 -134 445 -146 0 -5 -13 -48 -29 -97 -82 -250 -96 -338
-96 -618 0 -187 3 -246 18 -314 31 -137 81 -273 151 -406 70 -133 79 -171 51
-225 -23 -44 -151 -147 -235 -188 l-75 -37 -240 3 c-133 1 -246 -1 -254 -6
-10 -8 -12 -49 -9 -213 6 -237 14 -273 71 -304 l37 -20 84 22 c78 20 88 21
138 7 78 -20 140 -18 166 6 26 25 30 38 41 162 11 129 27 152 176 259 204 146
337 296 444 501 148 284 207 559 190 884 -12 218 -84 476 -187 662 l-23 43 84
88 c142 147 224 274 262 404 17 59 23 209 11 288 -10 59 -60 213 -96 295 -17
36 -30 72 -30 80 0 8 15 35 34 61 106 150 178 380 195 629 7 108 1 292 -13
354 -30 141 -66 252 -82 257 -5 2 -24 -52 -43 -120 -72 -262 -111 -339 -206
-402 -83 -55 -138 -62 -510 -70 l-331 -7 -93 67 c-282 203 -491 204 -770 2
-102 -74 -83 -72 -506 -59 -327 11 -368 17 -443 72 -84 61 -124 149 -219 485
-17 58 -22 66 -30 50z m1658 -571 c89 -27 143 -60 219 -134 39 -38 82 -73 95
-76 13 -3 50 -4 82 -1 32 3 164 10 293 16 129 6 341 22 470 36 129 14 238 25
243 25 23 0 -18 -236 -57 -323 -54 -120 -119 -131 -321 -54 -145 55 -257 72
-382 57 -308 -35 -526 -212 -654 -530 -54 -135 -63 -145 -83 -95 -9 21 -16 42
-16 48 0 22 -95 202 -138 260 -114 155 -271 259 -459 303 -93 22 -293 14 -379
-14 -86 -29 -181 -73 -247 -116 -67 -42 -74 -43 -87 -13 -35 85 -162 469 -156
474 3 4 106 -5 229 -20 203 -24 522 -41 775 -39 113 0 165 24 297 136 51 43
130 75 186 76 19 0 60 -7 90 -16z m-762 -719 c232 -55 401 -265 401 -500 0
-169 -97 -341 -244 -437 -199 -128 -465 -98 -635 73 -99 99 -151 224 -151 364
0 146 46 253 154 361 133 132 298 180 475 139z m1606 -1 c100 -25 165 -63 241
-139 207 -206 207 -513 0 -721 -116 -116 -225 -159 -385 -152 -143 7 -248 54
-343 154 -96 101 -137 194 -145 324 -10 163 34 280 150 394 135 134 311 185
482 140z m-832 -762 c79 -161 82 -170 82 -237 0 -62 -5 -80 -42 -155 -33 -69
-88 -162 -111 -190 -7 -9 -120 117 -149 167 -25 42 -28 58 -28 128 1 57 7 96
22 135 30 76 103 269 115 302 6 15 14 25 19 22 5 -3 47 -81 92 -172z m-1024
-667 c47 -96 83 -202 108 -316 14 -66 18 -126 17 -279 -1 -184 -2 -202 -31
-310 -17 -63 -45 -149 -62 -191 -40 -95 -111 -213 -132 -217 -22 -4 -96 140
-143 279 -100 294 -100 642 -1 919 31 84 74 174 113 233 l26 39 33 -38 c18
-22 50 -75 72 -119z m2008 102 c114 -154 180 -362 190 -603 9 -211 -19 -380
-94 -569 -37 -92 -112 -226 -131 -233 -6 -2 -24 18 -42 43 -210 305 -239 824
-69 1229 39 94 87 176 102 176 6 0 26 -20 44 -43z"/>
<path d="M1455 5911 c-93 -25 -165 -81 -209 -162 -39 -71 -47 -174 -20 -250
50 -138 204 -225 351 -198 71 13 103 30 159 81 67 62 88 115 88 223 0 101 -16
144 -80 215 -66 72 -200 115 -289 91z m259 -133 c40 -47 44 -66 19 -106 -24
-37 -86 -112 -93 -112 -14 0 -100 130 -100 152 0 31 24 65 64 89 47 29 70 24
110 -23z"/>
<path d="M2835 5911 c-91 -24 -190 -113 -219 -198 -9 -26 -16 -79 -16 -118 0
-173 131 -299 310 -299 90 0 147 22 213 83 66 61 91 126 84 221 -5 73 -31 160
-49 160 -4 0 -8 -12 -8 -27 0 -16 -6 -39 -13 -52 -14 -27 -91 -71 -126 -71
-31 0 -91 63 -91 97 0 59 86 130 146 120 54 -9 38 13 -37 50 -67 34 -143 47
-194 34z"/>
<path d="M3577 2808 c-47 -10 -49 -12 -44 -42 2 -17 24 -87 49 -156 25 -69 80
-224 123 -345 83 -236 96 -274 205 -580 39 -110 84 -236 99 -280 119 -332 204
-563 217 -582 8 -13 33 -32 55 -43 34 -18 46 -19 73 -10 53 17 95 60 117 120
43 116 94 265 189 545 54 160 146 430 205 600 59 171 110 320 112 333 3 12 10
22 17 22 6 0 87 -228 181 -508 270 -808 339 -998 379 -1047 39 -47 84 -70 119
-61 28 7 92 66 112 105 12 25 165 441 245 666 15 44 55 157 88 250 213 601
324 924 329 961 6 45 7 43 -60 58 -39 9 -107 -11 -138 -40 -36 -34 -56 -84
-140 -339 -64 -198 -140 -418 -234 -685 -44 -124 -161 -457 -189 -539 -12 -36
-27 -66 -32 -68 -5 -2 -32 65 -58 149 -106 329 -459 1384 -472 1410 -8 15 -30
43 -51 63 -51 50 -96 49 -149 -3 -53 -51 -60 -68 -165 -387 -296 -901 -406
-1226 -414 -1226 -8 0 -32 53 -55 121 -5 14 -38 108 -73 210 -175 499 -226
647 -317 922 -55 163 -110 315 -124 337 -42 65 -108 88 -199 69z"/>
<path d="M6912 1793 l3 -1008 680 0 679 0 -3 95 c-1 52 -5 98 -7 102 -3 5
-261 8 -575 8 l-569 0 0 905 0 905 -105 0 -105 0 2 -1007z"/>
<path d="M8612 1793 l3 -1008 100 0 100 0 3 1008 2 1007 -105 0 -105 0 2
-1007z"/>
<path d="M2895 2508 c-8 -28 -15 -68 -15 -88 0 -49 24 -139 55 -202 87 -178
110 -270 110 -443 -1 -104 -5 -146 -23 -209 -69 -242 -228 -438 -437 -537
-316 -151 -687 -78 -932 185 -149 158 -234 396 -219 611 8 117 26 189 82 331
33 84 46 132 47 173 2 65 -16 135 -44 171 l-19 25 -41 -45 c-109 -119 -183
-264 -231 -450 -32 -123 -32 -377 0 -500 41 -161 90 -266 180 -385 129 -173
286 -287 491 -355 491 -165 1038 55 1261 507 42 87 82 205 101 303 16 83 16
325 0 410 -39 208 -130 386 -258 499 -73 66 -88 66 -108 -1z"/>
</g>
</svg>
