<?xml version="1.0" standalone="no"?>
<!DOCTYPE svg PUBLIC "-//W3C//DTD SVG 20010904//EN"
 "http://www.w3.org/TR/2001/REC-SVG-20010904/DTD/svg10.dtd">
<svg version="1.0" xmlns="http://www.w3.org/2000/svg"
 width="500.000000pt" height="500.000000pt" viewBox="0 0 500.000000 500.000000"
 preserveAspectRatio="xMidYMid meet">

<g transform="translate(0.000000,500.000000) scale(0.100000,-0.100000)"
fill="#000000" stroke="none">
<path d="M1302 4890 c-49 -126 -65 -473 -28 -615 20 -77 80 -210 118 -264 l24
-34 -39 -91 c-69 -161 -81 -281 -41 -400 22 -63 98 -176 173 -258 l62 -67 -40
-91 c-151 -335 -145 -687 17 -1003 82 -161 173 -269 320 -379 102 -76 131
-119 132 -193 0 -63 17 -111 44 -123 17 -8 43 -6 102 5 71 15 80 15 105 1 26
-15 29 -15 78 18 l51 35 0 154 0 155 -163 0 c-190 0 -243 11 -316 64 -54 40
-101 107 -101 145 0 12 15 52 34 89 47 93 92 225 113 329 36 187 15 445 -53
634 -14 39 -24 72 -22 74 5 4 312 105 319 105 4 0 58 -85 120 -190 63 -104
117 -190 120 -190 4 0 54 80 113 178 58 97 110 183 115 191 8 12 37 5 169 -37
l160 -52 -35 -112 c-44 -145 -63 -267 -63 -399 0 -186 35 -331 124 -506 63
-126 62 -147 -10 -213 -31 -28 -80 -63 -108 -78 -47 -25 -60 -27 -176 -28 -69
0 -151 -2 -182 -2 l-58 -2 0 -145 c0 -215 23 -253 137 -220 41 12 62 13 91 5
20 -5 54 -10 74 -10 49 0 64 24 73 120 4 41 14 87 23 103 9 15 50 51 91 79
148 103 263 233 338 383 159 317 165 697 17 1022 -19 42 -34 78 -34 82 0 4 25
33 56 66 88 93 152 191 176 268 37 123 17 266 -62 440 -22 49 -22 49 -2 70 55
61 112 208 138 351 17 96 18 268 3 352 -12 67 -50 194 -58 194 -4 0 -21 -54
-40 -120 -48 -173 -83 -229 -166 -273 -36 -18 -66 -21 -298 -29 -284 -9 -264
-12 -359 58 -81 59 -156 86 -243 87 -91 1 -158 -22 -255 -88 -43 -29 -86 -56
-96 -59 -11 -3 -131 -2 -269 3 -227 7 -254 9 -291 29 -76 39 -110 92 -155 237
-22 71 -44 139 -48 150 -8 19 -9 19 -19 -5z m1211 -396 c29 -10 72 -39 112
-75 36 -32 76 -61 89 -65 13 -3 58 -1 100 5 43 6 121 11 175 11 87 0 328 19
449 35 l42 6 0 -33 c0 -49 -34 -181 -56 -219 -11 -19 -32 -40 -47 -47 -30 -15
-65 -7 -206 43 -189 68 -393 26 -541 -111 -71 -66 -107 -122 -155 -236 -21
-49 -41 -88 -45 -88 -5 0 -14 17 -20 38 -50 155 -176 309 -304 371 -179 85
-332 77 -531 -29 l-91 -47 -62 175 c-34 97 -60 178 -57 180 2 2 64 -4 137 -13
113 -15 265 -23 563 -29 75 -1 145 25 199 74 23 21 55 44 71 53 39 21 119 21
178 1z m-588 -495 c208 -38 342 -241 291 -439 -29 -111 -94 -192 -199 -247
-47 -25 -62 -28 -152 -28 -90 0 -106 3 -157 28 -70 34 -133 95 -173 168 -28
50 -30 61 -30 159 0 91 3 112 25 155 49 101 156 183 263 204 60 12 66 12 132
0z m1197 -15 c88 -31 168 -107 210 -201 18 -38 22 -67 23 -138 0 -79 -4 -98
-29 -153 -38 -81 -123 -162 -203 -192 -85 -32 -206 -26 -286 15 -71 35 -140
107 -175 183 -23 49 -27 70 -27 147 0 79 4 97 29 149 84 172 280 253 458 190z
m-630 -531 c74 -155 76 -174 20 -286 -22 -45 -48 -91 -56 -102 -14 -20 -16
-19 -56 20 -22 22 -53 64 -67 93 -33 67 -29 99 30 252 24 63 47 123 50 133 4
9 9 17 12 17 4 0 34 -57 67 -127z m-753 -417 c145 -240 160 -593 36 -854 -43
-90 -73 -134 -87 -126 -20 13 -90 176 -116 272 -22 84 -26 117 -26 252 -1 131
3 168 22 240 26 97 106 270 125 270 7 0 28 -24 46 -54z m1458 6 c69 -104 107
-213 124 -358 21 -177 -23 -392 -112 -552 -40 -72 -41 -73 -61 -56 -27 25 -93
164 -115 244 -14 51 -18 102 -18 245 0 157 3 191 23 265 30 112 98 260 120
260 4 0 21 -21 39 -48z"/>
<path d="M1845 3844 c-81 -44 -124 -115 -125 -203 0 -70 30 -134 81 -170 96
-70 205 -64 289 17 102 99 87 256 -31 338 -35 24 -53 29 -113 32 -51 2 -79 -2
-101 -14z m239 -86 c9 -12 16 -30 16 -39 0 -16 -67 -109 -79 -109 -11 1 -71
96 -71 113 0 9 10 26 23 38 45 43 80 42 111 -3z"/>
<path d="M2819 3840 c-151 -80 -160 -295 -15 -385 102 -62 243 -30 300 68 35
62 40 97 20 167 -19 67 -34 86 -34 43 0 -33 -7 -43 -40 -66 -51 -35 -120 -6
-120 51 0 35 53 80 98 84 l37 3 -54 28 c-67 33 -138 36 -192 7z"/>
<path d="M2911 1459 c-18 -51 -12 -109 15 -174 14 -33 39 -96 56 -140 153
-410 -187 -848 -609 -785 -198 30 -357 148 -438 325 -43 93 -59 163 -58 260 1
88 21 177 59 263 34 76 41 165 17 212 -10 19 -25 35 -33 35 -22 0 -114 -134
-148 -217 -64 -154 -78 -338 -38 -493 24 -90 99 -233 157 -298 223 -251 598
-318 899 -161 141 74 240 175 310 319 62 126 75 188 75 355 0 162 -17 238 -78
355 -34 64 -135 175 -160 175 -8 0 -20 -14 -26 -31z"/>
</g>
</svg>
